# xmcd
#
# Track frame offsets:
#	150
#	18353
#	32007
#	44500
#	54975
#	68130
#	83119
#	101851
#	122246
#	137760
#
# Disc length: 1981 seconds
# Revision: 0
# Processed by: cddbd v1.5.2PL0 Copyright (c) Steve Scherf et al.
# Submitted via: dBpowerAMP V12.0
#
DISCID=8607bb0a
DTITLE=Cary Morin - Together
DYEAR=2016
DGENRE=Blues
TTITLE0=Together
TTITLE1=Sing It Louder
TTITLE2=You Were There With Me
TTITLE3=Idle No More
TTITLE4=River Under The Snow
TTITLE5=Share My Name
TTITLE6=Prisoner
TTITLE7=We're Doing Fine
TTITLE8=Nobody Loves You
TTITLE9=Taylor's Moon Song
EXTD=
EXTT0=
EXTT1=
EXTT2=
EXTT3=
EXTT4=
EXTT5=
EXTT6=
EXTT7=
EXTT8=
EXTT9=
PLAYORDER=
